<?xml version="1.0" encoding="UTF-8" standalone="no"?>
<svg
   xmlns:dc="http://purl.org/dc/elements/1.1/"
   xmlns:cc="http://creativecommons.org/ns#"
   xmlns:rdf="http://www.w3.org/1999/02/22-rdf-syntax-ns#"
   xmlns:svg="http://www.w3.org/2000/svg"
   xmlns="http://www.w3.org/2000/svg"
   viewBox="0 0 476.09332 502.98666"
   height="502.98666"
   width="476.09332"
   xml:space="preserve"
   id="svg2"
   version="1.1"><metadata
     id="metadata8"><rdf:RDF><cc:Work
         rdf:about=""><dc:format>image/svg+xml</dc:format><dc:type
           rdf:resource="http://purl.org/dc/dcmitype/StillImage" /></cc:Work></rdf:RDF></metadata><defs
     id="defs6" /><g
     transform="matrix(1.3333333,0,0,-1.3333333,0,502.98667)"
     id="g10"><g
       transform="translate(72,305.238)"
       id="g12"><g
         transform="translate(130.775,-84.244)"
         id="g14"><g
           id="g16"><g
             id="g18"><g
               id="g20"><g
                 id="g22"><g
                   id="g24"><path
                     id="path26"
                     style="fill:#ffffff;fill-opacity:1;fill-rule:nonzero;stroke:none"
                     d="m 154.29695,0 c 0,6.93839 -5.62451,12.56291 -12.56291,12.56291 -6.9384,0 -12.56291,-5.62452 -12.56291,-12.56291 0,-6.93839 5.62451,-12.56291 12.56291,-12.56291 6.9384,0 12.56291,5.62452 12.56291,12.56291 z" /></g><g
                   id="g28"><g
                     transform="scale(-1)"
                     id="g30"><g
                       id="g32" /><g
                       transform="rotate(180,65.3875,-42.122)"
                       id="g34"><g
                         id="g36" /><g
                         transform="translate(132.734,-3.27)"
                         id="g38"><g
                           id="g40"><text
                             id="text44"
                             style="font-variant:normal;font-weight:normal;font-size:9px;font-family:SimSun;-inkscape-font-specification:SimSun;writing-mode:lr-tb;fill:#000000;fill-opacity:1;fill-rule:nonzero;stroke:none"
                             transform="matrix(1,0,0,-1,130.775,-84.244)"><tspan
                               id="tspan42"
                               y="0"
                               x="0 9">单位</tspan></text>
</g></g><g
                         transform="translate(130.775,-84.244)"
                         id="g46" /></g></g></g></g></g><g
               id="g48"><g
                 id="g50"><g
                   id="g52"><path
                     id="path54"
                     style="fill:#ffffff;fill-opacity:1;fill-rule:nonzero;stroke:none"
                     d="m 121.13643,91.10547 c 0,6.93838 -5.62453,12.56291 -12.56291,12.56291 -6.9384,0 -12.56293,-5.62453 -12.56293,-12.56291 0,-6.9384 5.62453,-12.56293 12.56293,-12.56293 6.93838,0 12.56291,5.62453 12.56291,12.56293 z" /></g><g
                   id="g56"><g
                     transform="scale(-1)"
                     id="g58"><g
                       id="g60" /><g
                       transform="rotate(180,65.3875,-42.122)"
                       id="g62"><g
                         id="g64" /><g
                         transform="translate(99.573,87.836)"
                         id="g66"><g
                           id="g68"><text
                             id="text72"
                             style="font-variant:normal;font-weight:normal;font-size:9px;font-family:SimSun;-inkscape-font-specification:SimSun;writing-mode:lr-tb;fill:#000000;fill-opacity:1;fill-rule:nonzero;stroke:none"
                             transform="matrix(1,0,0,-1,130.775,-84.244)"><tspan
                               id="tspan70"
                               y="0"
                               x="0 9">武器</tspan></text>
</g></g><g
                         transform="translate(130.775,-84.244)"
                         id="g74" /></g></g></g></g></g><g
               id="g76"><g
                 id="g78"><g
                   id="g80"><path
                     id="path82"
                     style="fill:#ffffff;fill-opacity:1;fill-rule:nonzero;stroke:none"
                     d="m 41.2757,139.58215 c 0,9.20354 -7.46076,16.66429 -16.6643,16.66429 -9.20353,0 -16.66429,-7.46075 -16.66429,-16.66429 0,-9.20353 7.46076,-16.66429 16.66429,-16.66429 9.20354,0 16.6643,7.46076 16.6643,16.66429 z" /></g><g
                   id="g84"><g
                     transform="scale(-1)"
                     id="g86"><g
                       id="g88" /><g
                       transform="rotate(180,65.3875,-42.122)"
                       id="g90"><g
                         id="g92" /><g
                         transform="translate(11.111,136.313)"
                         id="g94"><g
                           id="g96"><text
                             id="text100"
                             style="font-variant:normal;font-weight:normal;font-size:9px;font-family:SimSun;-inkscape-font-specification:SimSun;writing-mode:lr-tb;fill:#000000;fill-opacity:1;fill-rule:nonzero;stroke:none"
                             transform="matrix(1,0,0,-1,130.775,-84.244)"><tspan
                               id="tspan98"
                               y="0"
                               x="0 9 18">抛射体</tspan></text>
</g></g><g
                         transform="translate(130.775,-84.244)"
                         id="g102" /></g></g></g></g></g><g
               id="g104"><g
                 id="g106"><g
                   id="g108"><path
                     id="path110"
                     style="fill:#ffffff;fill-opacity:1;fill-rule:nonzero;stroke:none"
                     d="m -58.3041,122.74562 c 0,6.93838 -5.62452,12.56291 -12.5629,12.56291 -6.9384,0 -12.56293,-5.62453 -12.56293,-12.56291 0,-6.9384 5.62453,-12.56292 12.56293,-12.56292 6.93838,0 12.5629,5.62452 12.5629,12.56292 z" /></g><g
                   id="g112"><g
                     transform="scale(-1)"
                     id="g114"><g
                       id="g116" /><g
                       transform="rotate(180,65.3875,-42.122)"
                       id="g118"><g
                         id="g120" /><g
                         transform="translate(-79.867,119.546)"
                         id="g122"><g
                           id="g124"><text
                             id="text128"
                             style="font-variant:normal;font-weight:normal;font-size:9px;font-family:SimSun;-inkscape-font-specification:SimSun;writing-mode:lr-tb;fill:#000000;fill-opacity:1;fill-rule:nonzero;stroke:none"
                             transform="matrix(1,0,0,-1,130.775,-84.244)"><tspan
                               id="tspan126"
                               y="0"
                               x="0 9">弹头</tspan></text>
</g></g><g
                         transform="translate(130.775,-84.244)"
                         id="g130" /></g></g></g></g></g><g
               id="g132"><g
                 id="g134"><g
                   id="g136"><path
                     id="path138"
                     style="fill:#ffffff;fill-opacity:1;fill-rule:nonzero;stroke:none"
                     d="m -120.62416,48.47668 c 0,6.9384 -5.62453,12.56292 -12.56291,12.56292 -6.9384,0 -12.56293,-5.62452 -12.56293,-12.56292 0,-6.9384 5.62453,-12.56291 12.56293,-12.56291 6.93838,0 12.56291,5.62451 12.56291,12.56291 z" /></g><g
                   id="g140"><g
                     transform="scale(-1)"
                     id="g142"><g
                       id="g144" /><g
                       transform="rotate(180,65.3875,-42.122)"
                       id="g146"><g
                         id="g148" /><g
                         transform="translate(-142.187,45.225)"
                         id="g150"><g
                           id="g152"><text
                             id="text156"
                             style="font-variant:normal;font-weight:normal;font-size:9px;font-family:SimSun;-inkscape-font-specification:SimSun;writing-mode:lr-tb;fill:#000000;fill-opacity:1;fill-rule:nonzero;stroke:none"
                             transform="matrix(1,0,0,-1,130.775,-84.244)"><tspan
                               id="tspan154"
                               y="0"
                               x="0 9">伤害</tspan></text>
</g></g><g
                         transform="translate(130.775,-84.244)"
                         id="g158" /></g></g></g></g></g><g
               id="g160"><g
                 id="g162"><g
                   id="g164"><path
                     id="path166"
                     style="fill:#ffffff;fill-opacity:1;fill-rule:nonzero;stroke:none"
                     d="m -120.62416,-48.47668 c 0,6.9384 -5.62453,12.56291 -12.56291,12.56291 -6.9384,0 -12.56293,-5.62451 -12.56293,-12.56291 0,-6.9384 5.62453,-12.56292 12.56293,-12.56292 6.93838,0 12.56291,5.62452 12.56291,12.56292 z" /></g><g
                   id="g168"><g
                     transform="scale(-1)"
                     id="g170"><g
                       id="g172" /><g
                       transform="rotate(180,65.3875,-42.122)"
                       id="g174"><g
                         id="g176" /><g
                         transform="translate(-142.187,-51.694)"
                         id="g178"><g
                           id="g180"><text
                             id="text184"
                             style="font-variant:normal;font-weight:normal;font-size:9px;font-family:SimSun;-inkscape-font-specification:SimSun;writing-mode:lr-tb;fill:#000000;fill-opacity:1;fill-rule:nonzero;stroke:none"
                             transform="matrix(1,0,0,-1,130.775,-84.244)"><tspan
                               id="tspan182"
                               y="0"
                               x="0 9">碎片</tspan></text>
</g></g><g
                         transform="translate(130.775,-84.244)"
                         id="g186" /></g></g></g></g></g><g
               id="g188"><g
                 id="g190"><g
                   id="g192"><path
                     id="path194"
                     style="fill:#ffffff;fill-opacity:1;fill-rule:nonzero;stroke:none"
                     d="m -58.3041,-122.74562 c 0,6.9384 -5.62452,12.56292 -12.5629,12.56292 -6.9384,0 -12.56293,-5.62452 -12.56293,-12.56292 0,-6.93838 5.62453,-12.56291 12.56293,-12.56291 6.93838,0 12.5629,5.62453 12.5629,12.56291 z" /></g><g
                   id="g196"><g
                     transform="scale(-1)"
                     id="g198"><g
                       id="g200" /><g
                       transform="rotate(180,65.3875,-42.122)"
                       id="g202"><g
                         id="g204" /><g
                         transform="translate(-79.867,-125.945)"
                         id="g206"><g
                           id="g208"><text
                             id="text212"
                             style="font-variant:normal;font-weight:normal;font-size:9px;font-family:SimSun;-inkscape-font-specification:SimSun;writing-mode:lr-tb;fill:#000000;fill-opacity:1;fill-rule:nonzero;stroke:none"
                             transform="matrix(1,0,0,-1,130.775,-84.244)"><tspan
                               id="tspan210"
                               y="0"
                               x="0 9">动画</tspan></text>
</g></g><g
                         transform="translate(130.775,-84.244)"
                         id="g214" /></g></g></g></g></g><g
               id="g216"><g
                 id="g218"><g
                   id="g220"><path
                     id="path222"
                     style="fill:#ffffff;fill-opacity:1;fill-rule:nonzero;stroke:none"
                     d="m 37.17432,-139.58215 c 0,6.9384 -5.62452,12.56291 -12.56292,12.56291 -6.9384,0 -12.5629,-5.62451 -12.5629,-12.56291 0,-6.9384 5.6245,-12.56292 12.5629,-12.56292 6.9384,0 12.56292,5.62452 12.56292,12.56292 z" /></g><g
                   id="g224"><g
                     transform="scale(-1)"
                     id="g226"><g
                       id="g228" /><g
                       transform="rotate(180,65.3875,-42.122)"
                       id="g230"><g
                         id="g232" /><g
                         transform="translate(15.611,-142.834)"
                         id="g234"><g
                           id="g236"><text
                             id="text240"
                             style="font-variant:normal;font-weight:normal;font-size:9px;font-family:SimSun;-inkscape-font-specification:SimSun;writing-mode:lr-tb;fill:#000000;fill-opacity:1;fill-rule:nonzero;stroke:none"
                             transform="matrix(1,0,0,-1,130.775,-84.244)"><tspan
                               id="tspan238"
                               y="0"
                               x="0 9">粒子</tspan></text>
</g></g><g
                         transform="translate(130.775,-84.244)"
                         id="g242" /></g></g></g></g></g><g
               id="g244"><g
                 id="g246"><g
                   id="g248"><path
                     id="path250"
                     style="fill:#ffffff;fill-opacity:1;fill-rule:nonzero;stroke:none"
                     d="m 127.26634,-91.10547 c 0,10.3239 -8.36894,18.69284 -18.69282,18.69284 -10.3239,0 -18.69284,-8.36894 -18.69284,-18.69284 0,-10.32388 8.36894,-18.69284 18.69284,-18.69284 10.32388,0 18.69282,8.36896 18.69282,18.69284 z" /></g><g
                   id="g252"><g
                     transform="scale(-1)"
                     id="g254"><g
                       id="g256" /><g
                       transform="rotate(180,65.3875,-42.122)"
                       id="g258"><g
                         id="g260" /><g
                         transform="translate(92.895,-93.356)"
                         id="g262"><g
                           id="g264"><text
                             id="text268"
                             style="font-variant:normal;font-size:9px;font-family:LMRoman9-Regular-Identity;-inkscape-font-specification:LMRoman9-Regular-Identity-H;writing-mode:lr-tb;fill:#000000;fill-opacity:1;fill-rule:nonzero;stroke:none"
                             transform="matrix(1,0,0,-1,130.775,-84.244)"><tspan
                               id="tspan266"
                               y="0"
                               x="0 7.191 11.817 15.93 19.548 22.122 26.487">Overlay</tspan></text>
</g></g><g
                         transform="translate(130.775,-84.244)"
                         id="g270" /></g></g></g></g></g><g
               id="g272"><g
                 id="g274"><g
                   id="g276"><path
                     id="path278"
                     style="fill:none;stroke:#0000ff;stroke-width:0.79701;stroke-linecap:butt;stroke-linejoin:miter;stroke-miterlimit:10;stroke-dasharray:none;stroke-opacity:1"
                     d="m 13.83308,-150.36047 c -58.41384,-58.41387 79.97051,-58.41387 19.83776,1.71888" /><g
                     transform="matrix(0.7071,0.7071,-0.7071,0.7071,13.83307,-150.36049)"
                     id="g280"><g
                       id="g282"><path
                         id="path284"
                         style="fill:#0000ff;fill-opacity:1;fill-rule:nonzero;stroke:#0000ff;stroke-width:0.79701;stroke-linecap:butt;stroke-linejoin:round;stroke-miterlimit:10;stroke-dasharray:none;stroke-opacity:1"
                         d="m 1.0361,0 c -1.29512,0.25902 -2.59025,0.77707 -4.1444,1.68365 1.55415,-1.1656 1.55415,-2.2017 0,-3.3673 1.55415,0.90658 2.84928,1.42463 4.1444,1.68365 z" /></g></g><g
                     id="g286"><g
                       id="g288"><g
                         transform="scale(-1)"
                         id="g290"><g
                           id="g292" /><g
                           transform="rotate(180,65.3875,-42.122)"
                           id="g294"><g
                             id="g296" /><g
                             transform="translate(24.611,-193.741)"
                             id="g298" /><g
                             transform="translate(130.775,-84.244)"
                             id="g300" /></g></g></g></g></g></g></g><g
               id="g302"><g
                 id="g304"><g
                   id="g306"><path
                     id="path308"
                     style="fill:none;stroke:#0000ff;stroke-width:0.79701;stroke-linecap:butt;stroke-linejoin:miter;stroke-miterlimit:10;stroke-dasharray:none;stroke-opacity:1"
                     d="m -86.10988,-122.74562 c -82.60957,0 15.24288,-97.85243 15.24288,-12.81198" /><g
                     transform="translate(-86.10988,-122.74562)"
                     id="g310"><g
                       id="g312"><path
                         id="path314"
                         style="fill:#0000ff;fill-opacity:1;fill-rule:nonzero;stroke:#0000ff;stroke-width:0.79701;stroke-linecap:butt;stroke-linejoin:round;stroke-miterlimit:10;stroke-dasharray:none;stroke-opacity:1"
                         d="m 1.0361,0 c -1.29512,0.25902 -2.59025,0.77707 -4.1444,1.68365 1.55415,-1.1656 1.55415,-2.2017 0,-3.3673 1.55415,0.90658 2.84928,1.42463 4.1444,1.68365 z" /></g></g><g
                     id="g316"><g
                       id="g318"><g
                         transform="scale(-1)"
                         id="g320"><g
                           id="g322" /><g
                           transform="rotate(180,65.3875,-42.122)"
                           id="g324"><g
                             id="g326" /><g
                             transform="translate(-109.163,-161.042)"
                             id="g328" /><g
                             transform="translate(130.775,-84.244)"
                             id="g330" /></g></g></g></g></g></g></g><g
               id="g332"><g
                 id="g334"><g
                   id="g336"><path
                     id="path338"
                     style="fill:none;stroke:#0000ff;stroke-width:0.79701;stroke-linecap:butt;stroke-linejoin:miter;stroke-miterlimit:10;stroke-dasharray:none;stroke-opacity:1"
                     d="m -143.96541,-37.69836 c -58.41385,58.41384 -58.41385,-79.97051 1.71889,-19.83776" /><g
                     transform="matrix(0.7071,-0.7071,0.7071,0.7071,-143.96542,-37.69835)"
                     id="g340"><g
                       id="g342"><path
                         id="path344"
                         style="fill:#0000ff;fill-opacity:1;fill-rule:nonzero;stroke:#0000ff;stroke-width:0.79701;stroke-linecap:butt;stroke-linejoin:round;stroke-miterlimit:10;stroke-dasharray:none;stroke-opacity:1"
                         d="m 1.0361,0 c -1.29512,0.25902 -2.59025,0.77707 -4.1444,1.68365 1.55415,-1.1656 1.55415,-2.2017 0,-3.3673 1.55415,0.90658 2.84928,1.42463 4.1444,1.68365 z" /></g></g><g
                     id="g346"><g
                       id="g348"><g
                         transform="scale(-1)"
                         id="g350"><g
                           id="g352" /><g
                           transform="rotate(180,65.3875,-42.122)"
                           id="g354"><g
                             id="g356" /><g
                             transform="translate(-187.346,-48.477)"
                             id="g358" /><g
                             transform="translate(130.775,-84.244)"
                             id="g360" /></g></g></g></g></g></g></g><g
               id="g362"><path
                 id="path364"
                 style="fill:none;stroke:#000000;stroke-width:0.79701;stroke-linecap:butt;stroke-linejoin:miter;stroke-miterlimit:10;stroke-dasharray:none;stroke-opacity:1"
                 d="M 137.35202,12.03899 113.19745,78.4018" /><g
                 transform="matrix(-0.34203,0.93967,-0.93967,-0.34203,113.19746,78.40178)"
                 id="g366"><g
                   id="g368"><path
                     id="path370"
                     style="fill:none;stroke:#000000;stroke-width:0.6376;stroke-linecap:round;stroke-linejoin:round;stroke-miterlimit:10;stroke-dasharray:none;stroke-opacity:1"
                     d="M -1.55415,2.0722 C -1.42464,1.29512 0,0.1295 0.38852,0 0,-0.1295 -1.42464,-1.29512 -1.55415,-2.0722" /></g></g></g><g
               id="g372"><path
                 id="path374"
                 style="fill:none;stroke:#000000;stroke-width:0.79701;stroke-linecap:butt;stroke-linejoin:miter;stroke-miterlimit:10;stroke-dasharray:none;stroke-opacity:1"
                 d="M 131.23926,-7.34846 C 60.7944,-56.67407 18.68457,-80.98804 -58.6145,-117.03226" /><g
                 transform="matrix(-0.9063,-0.4226,0.4226,-0.9063,-58.61449,-117.03226)"
                 id="g376"><g
                   id="g378"><path
                     id="path380"
                     style="fill:none;stroke:#000000;stroke-width:0.6376;stroke-linecap:round;stroke-linejoin:round;stroke-miterlimit:10;stroke-dasharray:none;stroke-opacity:1"
                     d="M -1.55415,2.0722 C -1.42464,1.29512 0,0.1295 0.38852,0 0,-0.1295 -1.42464,-1.29512 -1.55415,-2.0722" /></g></g></g><g
               id="g382"><path
                 id="path384"
                 style="fill:none;stroke:#000000;stroke-width:0.79701;stroke-linecap:butt;stroke-linejoin:miter;stroke-miterlimit:10;stroke-dasharray:none;stroke-opacity:1"
                 d="M 95.95625,88.88094 -119.87321,50.82404" /><g
                 transform="matrix(-0.9848,-0.17363,0.17363,-0.9848,-119.8732,50.82404)"
                 id="g386"><g
                   id="g388"><path
                     id="path390"
                     style="fill:none;stroke:#000000;stroke-width:0.6376;stroke-linecap:round;stroke-linejoin:round;stroke-miterlimit:10;stroke-dasharray:none;stroke-opacity:1"
                     d="M -1.55415,2.0722 C -1.42464,1.29512 0,0.1295 0.38852,0 0,-0.1295 -1.42464,-1.29512 -1.55415,-2.0722" /></g></g></g><g
               id="g392"><path
                 id="path394"
                 style="fill:none;stroke:#000000;stroke-width:0.79701;stroke-linecap:butt;stroke-linejoin:miter;stroke-miterlimit:10;stroke-dasharray:none;stroke-opacity:1"
                 d="m 96.96207,96.5199 c -23.88394,10.98376 -36.8826,18.39695 -57.91478,32.95877" /><g
                 transform="matrix(-0.82213,0.5692,-0.5692,-0.82213,39.0473,129.47867)"
                 id="g396"><g
                   id="g398"><path
                     id="path400"
                     style="fill:none;stroke:#000000;stroke-width:0.6376;stroke-linecap:round;stroke-linejoin:round;stroke-miterlimit:10;stroke-dasharray:none;stroke-opacity:1"
                     d="M -1.55415,2.0722 C -1.42464,1.29512 0,0.1295 0.38852,0 0,-0.1295 -1.42464,-1.29512 -1.55415,-2.0722" /></g></g></g><g
               id="g402"><path
                 id="path404"
                 style="fill:none;stroke:#000000;stroke-width:0.79701;stroke-linecap:butt;stroke-linejoin:miter;stroke-miterlimit:10;stroke-dasharray:none;stroke-opacity:1"
                 d="m 95.95625,93.33 -153.5094,27.06827" /><g
                 transform="matrix(-0.9848,0.17363,-0.17363,-0.9848,-57.55313,120.39827)"
                 id="g406"><g
                   id="g408"><path
                     id="path410"
                     style="fill:none;stroke:#000000;stroke-width:0.6376;stroke-linecap:round;stroke-linejoin:round;stroke-miterlimit:10;stroke-dasharray:none;stroke-opacity:1"
                     d="M -1.55415,2.0722 C -1.42464,1.29512 0,0.1295 0.38852,0 0,-0.1295 -1.42464,-1.29512 -1.55415,-2.0722" /></g></g></g><g
               id="g412"><path
                 id="path414"
                 style="fill:none;stroke:#000000;stroke-width:0.79701;stroke-linecap:butt;stroke-linejoin:miter;stroke-miterlimit:10;stroke-dasharray:none;stroke-opacity:1"
                 d="m -69.75035,109.9827 c 7.47644,-85.45293 7.47644,-134.51247 0.06165,-219.26076" /><g
                 transform="matrix(-0.08716,-0.99617,0.99617,-0.08716,-69.68869,-109.27806)"
                 id="g416"><g
                   id="g418"><path
                     id="path420"
                     style="fill:none;stroke:#000000;stroke-width:0.6376;stroke-linecap:round;stroke-linejoin:round;stroke-miterlimit:10;stroke-dasharray:none;stroke-opacity:1"
                     d="M -1.55415,2.0722 C -1.42464,1.29512 0,0.1295 0.38852,0 0,-0.1295 -1.42464,-1.29512 -1.55415,-2.0722" /></g></g></g><g
               id="g422"><path
                 id="path424"
                 style="fill:none;stroke:#ff0000;stroke-width:0.79701;stroke-linecap:butt;stroke-linejoin:miter;stroke-miterlimit:10;stroke-dasharray:none;stroke-opacity:1"
                 d="M 104.1917,79.06628 29.23514,-126.8783" /><g
                 transform="matrix(-0.34201,-0.93968,0.93968,-0.34201,29.23514,-126.8783)"
                 id="g426"><g
                   id="g428"><path
                     id="path430"
                     style="fill:none;stroke:#ff0000;stroke-width:0.6376;stroke-linecap:round;stroke-linejoin:round;stroke-miterlimit:10;stroke-dasharray:none;stroke-opacity:1"
                     d="M -1.55415,2.0722 C -1.42464,1.29512 0,0.1295 0.38852,0 0,-0.1295 -1.42464,-1.29512 -1.55415,-2.0722" /></g></g></g><g
               id="g432"><path
                 id="path434"
                 style="fill:none;stroke:#ff0000;stroke-width:0.79701;stroke-linecap:butt;stroke-linejoin:miter;stroke-miterlimit:10;stroke-dasharray:none;stroke-opacity:1"
                 d="m -58.1041,-123.86227 c 27.75785,-2.42835 43.42583,-5.19219 69.657,-12.22084" /><g
                 transform="matrix(0.96593,-0.25879,0.25879,0.96593,11.55289,-136.0831)"
                 id="g436"><g
                   id="g438"><path
                     id="path440"
                     style="fill:none;stroke:#ff0000;stroke-width:0.6376;stroke-linecap:round;stroke-linejoin:round;stroke-miterlimit:10;stroke-dasharray:none;stroke-opacity:1"
                     d="M -1.55415,2.0722 C -1.42464,1.29512 0,0.1295 0.38852,0 0,-0.1295 -1.42464,-1.29512 -1.55415,-2.0722" /></g></g></g><g
               id="g442"><path
                 id="path444"
                 style="fill:none;stroke:#ff0000;stroke-width:0.79701;stroke-linecap:butt;stroke-linejoin:miter;stroke-miterlimit:10;stroke-dasharray:none;stroke-opacity:1"
                 d="M -74.1826,110.3702 C -90.0291,51.22821 -101.89665,18.62636 -127.47372,-36.22418" /><g
                 transform="matrix(-0.4226,-0.9063,0.9063,-0.4226,-127.47372,-36.22417)"
                 id="g446"><g
                   id="g448"><path
                     id="path450"
                     style="fill:none;stroke:#ff0000;stroke-width:0.6376;stroke-linecap:round;stroke-linejoin:round;stroke-miterlimit:10;stroke-dasharray:none;stroke-opacity:1"
                     d="M -1.55415,2.0722 C -1.42464,1.29512 0,0.1295 0.38852,0 0,-0.1295 -1.42464,-1.29512 -1.55415,-2.0722" /></g></g></g><g
               id="g452"><path
                 id="path454"
                 style="fill:none;stroke:#ff0000;stroke-width:0.79701;stroke-linecap:butt;stroke-linejoin:miter;stroke-miterlimit:10;stroke-dasharray:none;stroke-opacity:1"
                 d="M 95.95625,88.88094 -119.87321,50.82404" /><g
                 transform="matrix(-0.9848,-0.17363,0.17363,-0.9848,-119.8732,50.82404)"
                 id="g456"><g
                   id="g458"><path
                     id="path460"
                     style="fill:none;stroke:#ff0000;stroke-width:0.6376;stroke-linecap:round;stroke-linejoin:round;stroke-miterlimit:10;stroke-dasharray:none;stroke-opacity:1"
                     d="M -1.55415,2.0722 C -1.42464,1.29512 0,0.1295 0.38852,0 0,-0.1295 -1.42464,-1.29512 -1.55415,-2.0722" /></g></g></g><g
               id="g462"><path
                 id="path464"
                 style="fill:none;stroke:#ff0000;stroke-width:0.79701;stroke-linecap:butt;stroke-linejoin:miter;stroke-miterlimit:10;stroke-dasharray:none;stroke-opacity:1"
                 d="m -71.98367,-109.9827 c -7.47644,85.45293 -7.47644,134.51247 -0.06165,219.26076" /><g
                 transform="matrix(0.08716,0.99617,-0.99617,0.08716,-72.04533,109.27806)"
                 id="g466"><g
                   id="g468"><path
                     id="path470"
                     style="fill:none;stroke:#ff0000;stroke-width:0.6376;stroke-linecap:round;stroke-linejoin:round;stroke-miterlimit:10;stroke-dasharray:none;stroke-opacity:1"
                     d="M -1.55415,2.0722 C -1.42464,1.29512 0,0.1295 0.38852,0 0,-0.1295 -1.42464,-1.29512 -1.55415,-2.0722" /></g></g></g><g
               id="g472"><path
                 id="path474"
                 style="fill:none;stroke:#ff0000;stroke-width:0.79701;stroke-linecap:butt;stroke-linejoin:miter;stroke-miterlimit:10;stroke-dasharray:none;stroke-opacity:1"
                 d="M 16.37598,-129.76772 -124.497,38.12038" /><g
                 transform="matrix(-0.64276,0.76604,-0.76604,-0.64276,-124.49698,38.12038)"
                 id="g476"><g
                   id="g478"><path
                     id="path480"
                     style="fill:none;stroke:#ff0000;stroke-width:0.6376;stroke-linecap:round;stroke-linejoin:round;stroke-miterlimit:10;stroke-dasharray:none;stroke-opacity:1"
                     d="M -1.55415,2.0722 C -1.42464,1.29512 0,0.1295 0.38852,0 0,-0.1295 -1.42464,-1.29512 -1.55415,-2.0722" /></g></g></g><g
               id="g482"><path
                 id="path484"
                 style="fill:none;stroke:#ff0000;stroke-width:0.79701;stroke-linecap:butt;stroke-linejoin:miter;stroke-miterlimit:10;stroke-dasharray:none;stroke-opacity:1"
                 d="M 100.33809,81.29102 -62.17693,-112.38931" /><g
                 transform="matrix(-0.64276,-0.76604,0.76604,-0.64276,-62.17691,-112.38931)"
                 id="g486"><g
                   id="g488"><path
                     id="path490"
                     style="fill:none;stroke:#ff0000;stroke-width:0.6376;stroke-linecap:round;stroke-linejoin:round;stroke-miterlimit:10;stroke-dasharray:none;stroke-opacity:1"
                     d="M -1.55415,2.0722 C -1.42464,1.29512 0,0.1295 0.38852,0 0,-0.1295 -1.42464,-1.29512 -1.55415,-2.0722" /></g></g></g><g
               id="g492"><path
                 id="path494"
                 style="fill:none;stroke:#ff0000;stroke-width:0.79701;stroke-linecap:butt;stroke-linejoin:miter;stroke-miterlimit:10;stroke-dasharray:none;stroke-opacity:1"
                 d="M 39.9399,132.43446 C 63.77396,121.16553 76.56367,113.69052 97.5015,98.86272" /><g
                 transform="matrix(0.81604,-0.57791,0.57791,0.81604,97.50148,98.86273)"
                 id="g496"><g
                   id="g498"><path
                     id="path500"
                     style="fill:none;stroke:#ff0000;stroke-width:0.6376;stroke-linecap:round;stroke-linejoin:round;stroke-miterlimit:10;stroke-dasharray:none;stroke-opacity:1"
                     d="M -1.55415,2.0722 C -1.42464,1.29512 0,0.1295 0.38852,0 0,-0.1295 -1.42464,-1.29512 -1.55415,-2.0722" /></g></g></g><g
               id="g502"><path
                 id="path504"
                 style="fill:none;stroke:#ff0000;stroke-width:0.79701;stroke-linecap:butt;stroke-linejoin:miter;stroke-miterlimit:10;stroke-dasharray:none;stroke-opacity:1"
                 d="m -129.87148,-36.10126 c 15.8465,59.14197 27.71404,91.74382 53.29111,146.59436" /><g
                 transform="matrix(0.4226,0.9063,-0.9063,0.4226,-76.58037,110.49309)"
                 id="g506"><g
                   id="g508"><path
                     id="path510"
                     style="fill:none;stroke:#ff0000;stroke-width:0.6376;stroke-linecap:round;stroke-linejoin:round;stroke-miterlimit:10;stroke-dasharray:none;stroke-opacity:1"
                     d="M -1.55415,2.0722 C -1.42464,1.29512 0,0.1295 0.38852,0 0,-0.1295 -1.42464,-1.29512 -1.55415,-2.0722" /></g></g></g><g
               id="g512"><path
                 id="path514"
                 style="fill:none;stroke:#ff0000;stroke-width:0.79701;stroke-linecap:butt;stroke-linejoin:miter;stroke-miterlimit:10;stroke-dasharray:none;stroke-opacity:1"
                 d="M 137.35202,-12.03899 115.29405,-72.64172" /><g
                 transform="matrix(-0.34203,-0.93967,0.93967,-0.34203,115.29407,-72.64171)"
                 id="g516"><g
                   id="g518"><path
                     id="path520"
                     style="fill:none;stroke:#ff0000;stroke-width:0.6376;stroke-linecap:round;stroke-linejoin:round;stroke-miterlimit:10;stroke-dasharray:none;stroke-opacity:1"
                     d="M -1.55415,2.0722 C -1.42464,1.29512 0,0.1295 0.38852,0 0,-0.1295 -1.42464,-1.29512 -1.55415,-2.0722" /></g></g></g><g
               id="g522"><path
                 id="path524"
                 style="fill:none;stroke:#00ff00;stroke-width:0.79701;stroke-linecap:butt;stroke-linejoin:miter;stroke-miterlimit:10;stroke-dasharray:none;stroke-opacity:1"
                 d="M 13.73964,126.6259 -124.497,-38.12038" /><g
                 transform="matrix(-0.64276,-0.76604,0.76604,-0.64276,-124.49698,-38.12038)"
                 id="g526"><g
                   id="g528"><path
                     id="path530"
                     style="fill:none;stroke:#00ff00;stroke-width:0.6376;stroke-linecap:round;stroke-linejoin:round;stroke-miterlimit:10;stroke-dasharray:none;stroke-opacity:1"
                     d="M -1.55415,2.0722 C -1.42464,1.29512 0,0.1295 0.38852,0 0,-0.1295 -1.42464,-1.29512 -1.55415,-2.0722" /></g></g></g><g
               id="g532"><path
                 id="path534"
                 style="fill:none;stroke:#00ff00;stroke-width:0.79701;stroke-linecap:butt;stroke-linejoin:miter;stroke-miterlimit:10;stroke-dasharray:none;stroke-opacity:1"
                 d="M 18.82687,123.689 -66.24327,-110.04175" /><g
                 transform="matrix(-0.34201,-0.93968,0.93968,-0.34201,-66.24327,-110.04175)"
                 id="g536"><g
                   id="g538"><path
                     id="path540"
                     style="fill:none;stroke:#00ff00;stroke-width:0.6376;stroke-linecap:round;stroke-linejoin:round;stroke-miterlimit:10;stroke-dasharray:none;stroke-opacity:1"
                     d="M -1.55415,2.0722 C -1.42464,1.29512 0,0.1295 0.38852,0 0,-0.1295 -1.42464,-1.29512 -1.55415,-2.0722" /></g></g></g><g
               id="g542"><path
                 id="path544"
                 style="fill:none;stroke:#00ff00;stroke-width:0.79701;stroke-linecap:butt;stroke-linejoin:miter;stroke-miterlimit:10;stroke-dasharray:none;stroke-opacity:1"
                 d="M -133.18707,-35.6647 V 34.95734" /><g
                 transform="rotate(90,-84.072205,-49.114865)"
                 id="g546"><g
                   id="g548"><path
                     id="path550"
                     style="fill:none;stroke:#00ff00;stroke-width:0.6376;stroke-linecap:round;stroke-linejoin:round;stroke-miterlimit:10;stroke-dasharray:none;stroke-opacity:1"
                     d="M -1.55415,2.0722 C -1.42464,1.29512 0,0.1295 0.38852,0 0,-0.1295 -1.42464,-1.29512 -1.55415,-2.0722" /></g></g></g><g
               id="g552"><path
                 id="path554"
                 style="fill:none;stroke:#00ff00;stroke-width:0.79701;stroke-linecap:butt;stroke-linejoin:miter;stroke-miterlimit:10;stroke-dasharray:none;stroke-opacity:1"
                 d="m -124.95184,-58.29092 45.39492,-54.09861" /><g
                 transform="matrix(0.64278,-0.76602,0.76602,0.64278,-79.55692,-112.38953)"
                 id="g556"><g
                   id="g558"><path
                     id="path560"
                     style="fill:none;stroke:#00ff00;stroke-width:0.6376;stroke-linecap:round;stroke-linejoin:round;stroke-miterlimit:10;stroke-dasharray:none;stroke-opacity:1"
                     d="M -1.55415,2.0722 C -1.42464,1.29512 0,0.1295 0.38852,0 0,-0.1295 -1.42464,-1.29512 -1.55415,-2.0722" /></g></g></g><g
               id="g562"><path
                 id="path564"
                 style="fill:none;stroke:#00ff00;stroke-width:0.79701;stroke-linecap:butt;stroke-linejoin:miter;stroke-miterlimit:10;stroke-dasharray:none;stroke-opacity:1"
                 d="m -79.10223,-112.93137 -45.39495,54.09859" /><g
                 transform="matrix(-0.64278,0.76602,-0.76602,-0.64278,-124.49718,-58.83278)"
                 id="g566"><g
                   id="g568"><path
                     id="path570"
                     style="fill:none;stroke:#00ff00;stroke-width:0.6376;stroke-linecap:round;stroke-linejoin:round;stroke-miterlimit:10;stroke-dasharray:none;stroke-opacity:1"
                     d="M -1.55415,2.0722 C -1.42464,1.29512 0,0.1295 0.38852,0 0,-0.1295 -1.42464,-1.29512 -1.55415,-2.0722" /></g></g></g><g
               id="g572"><path
                 id="path574"
                 style="fill:none;stroke:#00ff00;stroke-width:0.79701;stroke-linecap:butt;stroke-linejoin:miter;stroke-miterlimit:10;stroke-dasharray:none;stroke-opacity:1"
                 d="M -60.37224,-115.39714 C 10.07262,-66.07153 52.18243,-41.75758 129.48154,-5.71335" /><g
                 transform="matrix(0.9063,0.4226,-0.4226,0.9063,129.48152,-5.71335)"
                 id="g576"><g
                   id="g578"><path
                     id="path580"
                     style="fill:none;stroke:#00ff00;stroke-width:0.6376;stroke-linecap:round;stroke-linejoin:round;stroke-miterlimit:10;stroke-dasharray:none;stroke-opacity:1"
                     d="M -1.55415,2.0722 C -1.42464,1.29512 0,0.1295 0.38852,0 0,-0.1295 -1.42464,-1.29512 -1.55415,-2.0722" /></g></g></g><g
               id="g582"><path
                 id="path584"
                 style="fill:none;stroke:#00ff00;stroke-width:0.79701;stroke-linecap:butt;stroke-linejoin:miter;stroke-miterlimit:10;stroke-dasharray:none;stroke-opacity:1"
                 d="m 11.8485,-138.4655 c -27.75783,2.42836 -43.42583,5.19218 -69.65702,12.22084" /><g
                 transform="matrix(-0.96593,0.25879,-0.25879,-0.96593,-57.8085,-126.24467)"
                 id="g586"><g
                   id="g588"><path
                     id="path590"
                     style="fill:none;stroke:#00ff00;stroke-width:0.6376;stroke-linecap:round;stroke-linejoin:round;stroke-miterlimit:10;stroke-dasharray:none;stroke-opacity:1"
                     d="M -1.55415,2.0722 C -1.42464,1.29512 0,0.1295 0.38852,0 0,-0.1295 -1.42464,-1.29512 -1.55415,-2.0722" /></g></g></g><g
               id="g592"><path
                 id="path594"
                 style="fill:none;stroke:#00ff00;stroke-width:0.79701;stroke-linecap:butt;stroke-linejoin:miter;stroke-miterlimit:10;stroke-dasharray:none;stroke-opacity:1"
                 d="m 129.11678,-2.22453 -248.98999,-43.9048" /><g
                 transform="matrix(-0.9848,-0.17363,0.17363,-0.9848,-119.8732,-46.12933)"
                 id="g596"><g
                   id="g598"><path
                     id="path600"
                     style="fill:none;stroke:#00ff00;stroke-width:0.6376;stroke-linecap:round;stroke-linejoin:round;stroke-miterlimit:10;stroke-dasharray:none;stroke-opacity:1"
                     d="M -1.55415,2.0722 C -1.42464,1.29512 0,0.1295 0.38852,0 0,-0.1295 -1.42464,-1.29512 -1.55415,-2.0722" /></g></g></g><g
               id="g602"><path
                 id="path604"
                 style="fill:none;stroke:#00ff00;stroke-width:0.79701;stroke-linecap:butt;stroke-linejoin:miter;stroke-miterlimit:10;stroke-dasharray:none;stroke-opacity:1"
                 d="M -66.48518,110.70644 19.98766,-126.8783" /><g
                 transform="matrix(0.34201,-0.93968,0.93968,0.34201,19.98766,-126.8783)"
                 id="g606"><g
                   id="g608"><path
                     id="path610"
                     style="fill:none;stroke:#00ff00;stroke-width:0.6376;stroke-linecap:round;stroke-linejoin:round;stroke-miterlimit:10;stroke-dasharray:none;stroke-opacity:1"
                     d="M -1.55415,2.0722 C -1.42464,1.29512 0,0.1295 0.38852,0 0,-0.1295 -1.42464,-1.29512 -1.55415,-2.0722" /></g></g></g><g
               id="g612"><path
                 id="path614"
                 style="fill:none;stroke:#00ff00;stroke-width:0.79701;stroke-linecap:butt;stroke-linejoin:miter;stroke-miterlimit:10;stroke-dasharray:none;stroke-opacity:1"
                 d="M 92.16959,-100.57642 36.3193,-132.8225" /><g
                 transform="matrix(-0.86601,-0.5,0.5,-0.86601,36.31932,-132.82248)"
                 id="g616"><g
                   id="g618"><path
                     id="path620"
                     style="fill:none;stroke:#00ff00;stroke-width:0.6376;stroke-linecap:round;stroke-linejoin:round;stroke-miterlimit:10;stroke-dasharray:none;stroke-opacity:1"
                     d="M -1.55415,2.0722 C -1.42464,1.29512 0,0.1295 0.38852,0 0,-0.1295 -1.42464,-1.29512 -1.55415,-2.0722" /></g></g></g><g
               id="g622"><path
                 id="path624"
                 style="fill:none;stroke:#00ff00;stroke-width:0.79701;stroke-linecap:butt;stroke-linejoin:miter;stroke-miterlimit:10;stroke-dasharray:none;stroke-opacity:1"
                 d="M 92.16959,-81.6345 -121.47917,41.71703" /><g
                 transform="matrix(-0.86601,0.5,-0.5,-0.86601,-121.47916,41.71701)"
                 id="g626"><g
                   id="g628"><path
                     id="path630"
                     style="fill:none;stroke:#00ff00;stroke-width:0.6376;stroke-linecap:round;stroke-linejoin:round;stroke-miterlimit:10;stroke-dasharray:none;stroke-opacity:1"
                     d="M -1.55415,2.0722 C -1.42464,1.29512 0,0.1295 0.38852,0 0,-0.1295 -1.42464,-1.29512 -1.55415,-2.0722" /></g></g></g><g
               id="g632"><path
                 id="path634"
                 style="fill:none;stroke:#00ff00;stroke-width:0.79701;stroke-linecap:butt;stroke-linejoin:miter;stroke-miterlimit:10;stroke-dasharray:none;stroke-opacity:1"
                 d="M 89.91948,-94.39433 -57.55315,-120.39827" /><g
                 transform="matrix(-0.9848,-0.17363,0.17363,-0.9848,-57.55313,-120.39827)"
                 id="g636"><g
                   id="g638"><path
                     id="path640"
                     style="fill:none;stroke:#00ff00;stroke-width:0.6376;stroke-linecap:round;stroke-linejoin:round;stroke-miterlimit:10;stroke-dasharray:none;stroke-opacity:1"
                     d="M -1.55415,2.0722 C -1.42464,1.29512 0,0.1295 0.38852,0 0,-0.1295 -1.42464,-1.29512 -1.55415,-2.0722" /></g></g></g><g
               id="g642"><path
                 id="path644"
                 style="fill:none;stroke:#00ff00;stroke-width:0.79701;stroke-linecap:butt;stroke-linejoin:miter;stroke-miterlimit:10;stroke-dasharray:none;stroke-opacity:1"
                 d="M -120.56982,-50.70122 89.22289,-87.69377" /><g
                 transform="matrix(0.9848,-0.17363,0.17363,0.9848,89.22287,-87.69377)"
                 id="g646"><g
                   id="g648"><path
                     id="path650"
                     style="fill:none;stroke:#00ff00;stroke-width:0.6376;stroke-linecap:round;stroke-linejoin:round;stroke-miterlimit:10;stroke-dasharray:none;stroke-opacity:1"
                     d="M -1.55415,2.0722 C -1.42464,1.29512 0,0.1295 0.38852,0 0,-0.1295 -1.42464,-1.29512 -1.55415,-2.0722" /></g></g></g></g></g></g></g></g></svg>