<?xml version="1.0" encoding="UTF-8" standalone="no"?>
<svg
   xmlns:dc="http://purl.org/dc/elements/1.1/"
   xmlns:cc="http://creativecommons.org/ns#"
   xmlns:rdf="http://www.w3.org/1999/02/22-rdf-syntax-ns#"
   xmlns:svg="http://www.w3.org/2000/svg"
   xmlns="http://www.w3.org/2000/svg"
   viewBox="0 0 720 288"
   height="288"
   width="720"
   xml:space="preserve"
   id="svg2"
   version="1.1"><metadata
     id="metadata8"><rdf:RDF><cc:Work
         rdf:about=""><dc:format>image/svg+xml</dc:format><dc:type
           rdf:resource="http://purl.org/dc/dcmitype/StillImage" /></cc:Work></rdf:RDF></metadata><defs
     id="defs6" /><g
     transform="matrix(1.3333333,0,0,-1.3333333,0,288)"
     id="g10"><g
       transform="scale(0.1)"
       id="g12"><path
         id="path14"
         style="fill:none;stroke:#000000;stroke-width:7.5;stroke-linecap:butt;stroke-linejoin:miter;stroke-miterlimit:10;stroke-dasharray:none;stroke-opacity:1"
         d="M 379.199,218.398 V 801.602" /><g
         transform="scale(1.00028,0.999717)"
         id="g16"><path
           id="path18"
           style="fill:none;stroke:#000000;stroke-width:7.50001097;stroke-linecap:butt;stroke-linejoin:miter;stroke-miterlimit:10;stroke-dasharray:none;stroke-opacity:1"
           d="m 1169.48,1505.62 c 0,291.67 -236.439,528.11 -528.103,528.11 -291.663,0 -528.108,-236.44 -528.108,-528.11 0,-291.66 236.445,-528.105 528.108,-528.105 291.664,0 528.103,236.445 528.103,528.105" /></g><path
         id="path20"
         style="fill:none;stroke:#000000;stroke-width:7.5;stroke-linecap:butt;stroke-linejoin:miter;stroke-miterlimit:10;stroke-dasharray:none;stroke-opacity:1"
         d="m 379.199,1963.2 v 194.4" /><g
         transform="scale(1.00028,0.999717)"
         id="g22"><path
           id="path24"
           style="fill:none;stroke:#000000;stroke-width:7.50001097;stroke-linecap:butt;stroke-linejoin:miter;stroke-miterlimit:10;stroke-dasharray:none;stroke-opacity:1"
           d="m 1078.05,1709.69 c -68.23,18.55 -138.628,27.94 -209.335,27.94 -63.427,0 -126.636,-7.56 -188.275,-22.52" /></g><g
         transform="scale(1.00028,0.999717)"
         id="g26"><path
           id="path28"
           style="fill:none;stroke:#000000;stroke-width:7.50001097;stroke-linecap:butt;stroke-linejoin:miter;stroke-miterlimit:10;stroke-dasharray:none;stroke-opacity:1"
           d="m 1078.05,1679.29 c -68.23,18.54 -138.628,27.94 -209.335,27.94 -60.252,0 -120.314,-6.83 -179.031,-20.34" /></g><g
         transform="scale(1.00028,0.999717)"
         id="g30"><path
           id="path32"
           style="fill:none;stroke:#000000;stroke-width:7.50001097;stroke-linecap:butt;stroke-linejoin:miter;stroke-miterlimit:10;stroke-dasharray:none;stroke-opacity:1"
           d="m 199.787,1713.68 c -8.392,0 -15.199,-6.81 -15.199,-15.2 0,-8.39 6.807,-15.2 15.199,-15.2 2.628,0 5.221,0.68 7.506,1.98" /></g><g
         transform="scale(1.00028,0.999717)"
         id="g34"><path
           id="path36"
           style="fill:none;stroke:#000000;stroke-width:7.50001097;stroke-linecap:butt;stroke-linejoin:miter;stroke-miterlimit:10;stroke-dasharray:none;stroke-opacity:1"
           d="m 1070.49,1681.31 c 2.3,-1.32 4.9,-2.02 7.56,-2.02 8.39,0 15.2,6.81 15.2,15.2 0,8.39 -6.81,15.2 -15.2,15.2" /></g><g
         transform="scale(1.00028,0.999717)"
         id="g38"><path
           id="path40"
           style="fill:none;stroke:#000000;stroke-width:7.50001097;stroke-linecap:butt;stroke-linejoin:miter;stroke-miterlimit:10;stroke-dasharray:none;stroke-opacity:1"
           d="m 1066.71,1701.26 c 0,8.49 -6.88,15.37 -15.37,15.37 -8.49,0 -15.38,-6.88 -15.38,-15.37 0,-8.49 6.89,-15.38 15.38,-15.38 8.49,0 15.37,6.89 15.37,15.38" /></g><path
         id="path42"
         style="fill:none;stroke:#000000;stroke-width:7.5;stroke-linecap:butt;stroke-linejoin:miter;stroke-miterlimit:10;stroke-dasharray:none;stroke-opacity:1"
         d="m 588,1708.8 -4.801,12 -9.597,4.8 -12,-4.8 -4.801,-12 4.801,-9.6 12,-4.8 9.597,4.8 z" /><path
         id="path44"
         style="fill:none;stroke:#000000;stroke-width:7.5;stroke-linecap:butt;stroke-linejoin:miter;stroke-miterlimit:10;stroke-dasharray:none;stroke-opacity:1"
         d="m 588,1708.8 v 0" /><g
         transform="scale(1.00028,0.999717)"
         id="g46"><path
           id="path48"
           style="fill:none;stroke:#000000;stroke-width:7.50001097;stroke-linecap:butt;stroke-linejoin:miter;stroke-miterlimit:10;stroke-dasharray:none;stroke-opacity:1"
           d="m 208.707,1519.45 c 18.405,-227.67 208.55,-403.06 436.962,-403.06 239.377,0 434.501,192.02 438.331,431.37" /></g><g
         transform="scale(1.00028,0.999717)"
         id="g50"><path
           id="path52"
           style="fill:none;stroke:#000000;stroke-width:7.50001097;stroke-linecap:butt;stroke-linejoin:miter;stroke-miterlimit:10;stroke-dasharray:none;stroke-opacity:1"
           d="m 601.412,1688.76 c -62.24,14.95 -126.031,22.5 -190.044,22.5 -71.445,0 -142.589,-9.41 -211.581,-27.98" /></g><g
         transform="scale(1.00028,0.999717)"
         id="g54"><path
           id="path56"
           style="fill:none;stroke:#000000;stroke-width:7.50001097;stroke-linecap:butt;stroke-linejoin:miter;stroke-miterlimit:10;stroke-dasharray:none;stroke-opacity:1"
           d="m 608.742,1717.36 c -64.548,16.14 -130.838,24.3 -197.374,24.3 -71.445,0 -142.589,-9.41 -211.581,-27.98" /></g><g
         transform="scale(1.00028,0.999717)"
         id="g58"><path
           id="path60"
           style="fill:none;stroke:#000000;stroke-width:7.50001097;stroke-linecap:butt;stroke-linejoin:miter;stroke-miterlimit:10;stroke-dasharray:none;stroke-opacity:1"
           d="m 600.252,1689.04 c 1.375,-0.41 2.808,-0.62 4.245,-0.62 8.162,0 14.785,6.62 14.785,14.78 0,7.05 -4.979,13.13 -11.891,14.5" /></g><g
         transform="scale(1.00028,0.999717)"
         id="g62"><path
           id="path64"
           style="fill:none;stroke:#000000;stroke-width:7.50001097;stroke-linecap:butt;stroke-linejoin:miter;stroke-miterlimit:10;stroke-dasharray:none;stroke-opacity:1"
           d="m 682.744,1715.66 c -7.213,-1.14 -12.527,-7.36 -12.527,-14.66 0,-8.2 6.646,-14.85 14.843,-14.85 1.57,0 3.132,0.25 4.624,0.74" /></g><path
         id="path66"
         style="fill:none;stroke:#000000;stroke-width:7.5;stroke-linecap:butt;stroke-linejoin:miter;stroke-miterlimit:10;stroke-dasharray:none;stroke-opacity:1"
         d="M 379.199,218.398 H 482.398" /><path
         id="path68"
         style="fill:none;stroke:#000000;stroke-width:7.5;stroke-linecap:butt;stroke-linejoin:miter;stroke-miterlimit:10;stroke-dasharray:none;stroke-opacity:1"
         d="M 379.199,218.398 0,0" /><path
         id="path70"
         style="fill:none;stroke:#000000;stroke-width:7.5;stroke-linecap:butt;stroke-linejoin:miter;stroke-miterlimit:10;stroke-dasharray:none;stroke-opacity:1"
         d="m 453.602,1010.4 -26.403,-9.6 -26.398,-9.601 -26.403,-12 -24,-9.597 -12,-4.801 -12,-7.199 -12,-4.801 -12,-7.199 -9.597,-7.204 -12,-7.199 -9.602,-7.199 -9.597,-7.199 -9.602,-7.199 -7.199,-9.602 -9.602,-9.602 -7.199,-7.199 -7.199,-12 L 216,861.602 208.801,852 204,840 l -2.398,-12 -4.801,-12 -2.403,-14.398 v -4.801 -7.199 -7.204 -4.796 l 2.403,-4.801 2.398,-4.801 2.403,-4.801 2.398,-4.801 4.801,-2.398 4.801,-4.801 4.796,-2.398 h 4.801 l 7.199,-2.403 h 4.801 L 242.398,744 h 7.204 7.199 l 7.199,2.398 h 7.199 7.199 l 9.602,2.403 7.199,2.398 7.199,2.403 7.204,2.398 7.199,2.398 7.199,2.403 4.801,4.801 7.199,2.398 7.199,2.398 4.801,4.801 9.602,7.199 9.597,9.602 9.602,7.199 9.597,7.199 7.204,7.204 7.199,4.796 4.801,2.403 4.796,2.398 7.204,2.403 4.796,2.398 7.204,2.398 h 7.199 7.199 l 4.801,2.403 7.199,-2.403 h 4.801 L 468,828 h 2.398 v -2.398 l 4.801,-2.403 2.403,-4.801 2.398,-4.796 v -4.801 -7.199 -4.801 -7.199 -7.204 l -2.398,-7.199 -2.403,-14.398 -4.801,-14.403 L 468,729.602 465.602,715.199 463.199,700.801 460.801,686.398 458.398,672 456,660 v -14.398 l -2.398,-14.403 v -12 -12 l -2.403,-26.398 2.403,-24 v -24 l 2.398,-24 V 487.199 L 465.602,396 468,372 v -24 l 2.398,-24 V 300 295.199 288 280.801 l 2.403,-7.199 v -7.204 -7.199 l 4.801,-14.398 2.398,-14.403 4.801,-16.796 4.801,-14.403 4.796,-14.398 7.204,-14.403 2.398,-7.199 2.398,-4.801 2.403,-7.199 4.801,-4.801 2.398,-4.796 2.398,-4.801 2.403,-4.801 4.801,-2.398 2.398,-2.403 2.398,-2.398 4.801,-2.403 2.403,-2.398 h 2.398 2.398 l 2.403,2.398 4.801,2.403 2.398,2.398 2.398,2.403 2.403,4.796 2.398,2.403 2.403,4.801 2.398,7.199 2.398,4.801 2.403,4.796 4.801,14.403 4.796,12 7.204,14.398 4.796,14.403 7.204,14.398 7.199,12 2.398,7.199 4.801,4.801 4.801,7.199 4.801,4.801 4.796,4.801 4.801,4.801 4.801,4.796 4.801,2.403 4.801,4.801 4.796,2.398 4.801,2.398 7.199,2.403 12,4.801 12,2.398 12,2.398 12,2.403 h 12 12 l 12,-2.403 h 7.204 l 4.796,-2.398 7.204,-2.398 h 4.796 l 7.204,-2.403 4.796,-4.801 4.801,-2.398 7.199,-2.398 4.801,-4.801 4.801,-2.403 2.398,-4.796 4.801,-4.801 7.199,-9.602 7.204,-9.597 7.199,-9.602 7.199,-12 7.199,-9.602 4.801,-12 7.199,-9.597 9.602,-12 7.199,-9.602 9.602,-9.597 9.597,-7.204 4.801,-4.796 4.801,-2.403 4.801,-4.801 4.796,-2.398 7.204,-2.398 4.796,-2.403 7.204,-2.398 h 4.796 l 7.204,-2.403 h 7.199 7.199 7.199 7.199 4.801 l 7.199,2.403 h 7.204 l 7.198,2.398 4.8,2.403 4.8,2.398 4.8,2.398 4.8,2.403 2.4,2.398 4.8,2.403 v 4.796 l 2.4,2.403 v 4.801 4.796 2.403 4.801 l -2.4,4.796 v 4.801 l -2.4,4.801 -2.4,4.801 -4.8,4.801 -2.4,7.199 -4.8,4.801 -7.2,9.597 -9.598,12 -9.602,12 -19.199,24 -12,14.403 -9.602,12 -9.597,12 -7.204,12 -4.796,7.199 -2.403,4.801 -2.398,7.199 -4.801,4.801 -2.398,7.199 v 4.801 l -2.403,7.199 -2.398,4.801 v 4.796 7.204 12 12 12 l 2.398,12 2.403,12 V 456 L 912,470.398 v 14.403 16.801 16.796 16.801 l -2.398,33.602 v 36 l -2.403,16.801 v 16.796 16.801 14.403 14.398 14.398 7.204 7.199 l 2.403,4.801 v 4.796 l 2.398,7.204 v 4.796 l 2.398,4.801 V 744 l 2.403,2.398 2.398,4.801 2.403,2.403 2.398,4.796 2.398,2.403 h 2.403 l 2.398,2.398 h 2.403 4.796 2.403 4.801 4.796 l 4.801,-2.398 4.801,-2.403 4.801,-2.398 4.801,-2.398 12,-7.204 12,-4.796 4.796,-2.403 7.202,-2.398 7.2,-2.403 7.2,-2.398 h 4.8 7.2 l 7.2,-2.398 h 7.2 l 4.8,2.398 h 7.2 4.8 l 7.2,2.398 h 4.8 l 4.8,2.403 4.8,2.398 h 4.8 l 2.4,2.403 4.8,2.398 2.4,2.398 2.4,2.403 2.4,2.398 2.4,4.801 2.4,2.398 v 2.403 4.801 l 2.4,2.398 v 4.801 4.801 2.398 l -2.4,4.801 v 4.801 l -2.4,4.796 v 4.801 l -2.4,4.801 -4.8,9.602 -4.8,9.597 -7.2,9.602 -7.2,12 -7.2,12 -9.6,12 -9.6,12 -9.6,12 -12,14.398 -12,12 -12,14.403 -12,12 -12,14.398 -14.398,14.398 -12,14.403 L 928.801,1015.2 900,1044" /><path
         id="path72"
         style="fill:none;stroke:#000000;stroke-width:7.5;stroke-linecap:butt;stroke-linejoin:miter;stroke-miterlimit:10;stroke-dasharray:none;stroke-opacity:1"
         d="M 379.199,981.602 V 1044" /><path
         id="path74"
         style="fill:none;stroke:#000000;stroke-width:7.5;stroke-linecap:butt;stroke-linejoin:miter;stroke-miterlimit:10;stroke-dasharray:none;stroke-opacity:1"
         d="m 592.801,218.398 h 252" /><path
         id="path76"
         style="fill:none;stroke:#000000;stroke-width:7.5;stroke-linecap:butt;stroke-linejoin:miter;stroke-miterlimit:10;stroke-dasharray:none;stroke-opacity:1"
         d="M 1008,218.398 H 5397.6" /><path
         id="path78"
         style="fill:none;stroke:#000000;stroke-width:7.5;stroke-linecap:butt;stroke-linejoin:miter;stroke-miterlimit:10;stroke-dasharray:none;stroke-opacity:1"
         d="m 2071.2,1605.6 v -7.2" /><path
         id="path80"
         style="fill:none;stroke:#000000;stroke-width:7.5;stroke-linecap:butt;stroke-linejoin:miter;stroke-miterlimit:10;stroke-dasharray:none;stroke-opacity:1"
         d="m 2071.2,1600.8 h 7.2" /><path
         id="path82"
         style="fill:none;stroke:#000000;stroke-width:7.5;stroke-linecap:butt;stroke-linejoin:miter;stroke-miterlimit:10;stroke-dasharray:none;stroke-opacity:1"
         d="m 2078.4,1605.6 -7.2,-2.4" /><path
         id="path84"
         style="fill:none;stroke:#000000;stroke-width:7.5;stroke-linecap:butt;stroke-linejoin:miter;stroke-miterlimit:10;stroke-dasharray:none;stroke-opacity:1"
         d="m 2076,1615.2 -2.4,-9.6" /><path
         id="path86"
         style="fill:none;stroke:#000000;stroke-width:7.5;stroke-linecap:butt;stroke-linejoin:miter;stroke-miterlimit:10;stroke-dasharray:none;stroke-opacity:1"
         d="m 2068.8,1605.6 12,2.4" /><path
         id="path88"
         style="fill:none;stroke:#000000;stroke-width:7.5;stroke-linecap:butt;stroke-linejoin:miter;stroke-miterlimit:10;stroke-dasharray:none;stroke-opacity:1"
         d="m 2071.2,1608 7.2,2.4" /><path
         id="path90"
         style="fill:none;stroke:#000000;stroke-width:7.5;stroke-linecap:butt;stroke-linejoin:miter;stroke-miterlimit:10;stroke-dasharray:none;stroke-opacity:1"
         d="m 2071.2,1610.4 7.2,2.4" /><path
         id="path92"
         style="fill:none;stroke:#000000;stroke-width:7.5;stroke-linecap:butt;stroke-linejoin:miter;stroke-miterlimit:10;stroke-dasharray:none;stroke-opacity:1"
         d="m 2073.6,1617.6 h 2.4" /><path
         id="path94"
         style="fill:none;stroke:#000000;stroke-width:7.5;stroke-linecap:butt;stroke-linejoin:miter;stroke-miterlimit:10;stroke-dasharray:none;stroke-opacity:1"
         d="m 2071.2,1615.2 h 9.6" /><path
         id="path96"
         style="fill:none;stroke:#000000;stroke-width:7.5;stroke-linecap:butt;stroke-linejoin:miter;stroke-miterlimit:10;stroke-dasharray:none;stroke-opacity:1"
         d="m 2071.2,1615.2 v -2.4" /><path
         id="path98"
         style="fill:none;stroke:#000000;stroke-width:7.5;stroke-linecap:butt;stroke-linejoin:miter;stroke-miterlimit:10;stroke-dasharray:none;stroke-opacity:1"
         d="m 2080.8,1615.2 -2.4,-2.4" /><path
         id="path100"
         style="fill:none;stroke:#000000;stroke-width:7.5;stroke-linecap:butt;stroke-linejoin:miter;stroke-miterlimit:10;stroke-dasharray:none;stroke-opacity:1"
         d="m 2078.4,1605.6 -2.4,-4.8" /><path
         id="path102"
         style="fill:none;stroke:#000000;stroke-width:7.5;stroke-linecap:butt;stroke-linejoin:miter;stroke-miterlimit:10;stroke-dasharray:none;stroke-opacity:1"
         d="m 2109.6,1612.8 h 4.8" /><path
         id="path104"
         style="fill:none;stroke:#000000;stroke-width:7.5;stroke-linecap:butt;stroke-linejoin:miter;stroke-miterlimit:10;stroke-dasharray:none;stroke-opacity:1"
         d="m 2104.8,1612.8 -2.4,-4.8" /><path
         id="path106"
         style="fill:none;stroke:#000000;stroke-width:7.5;stroke-linecap:butt;stroke-linejoin:miter;stroke-miterlimit:10;stroke-dasharray:none;stroke-opacity:1"
         d="m 2104.8,1620 v -19.2" /><path
         id="path108"
         style="fill:none;stroke:#000000;stroke-width:7.5;stroke-linecap:butt;stroke-linejoin:miter;stroke-miterlimit:10;stroke-dasharray:none;stroke-opacity:1"
         d="m 2107.2,1612.8 -2.4,2.4" /><path
         id="path110"
         style="fill:none;stroke:#000000;stroke-width:7.5;stroke-linecap:butt;stroke-linejoin:miter;stroke-miterlimit:10;stroke-dasharray:none;stroke-opacity:1"
         d="m 2109.6,1615.2 v -14.4" /><path
         id="path112"
         style="fill:none;stroke:#000000;stroke-width:7.5;stroke-linecap:butt;stroke-linejoin:miter;stroke-miterlimit:10;stroke-dasharray:none;stroke-opacity:1"
         d="m 2114.4,1615.2 v -14.4" /><path
         id="path114"
         style="fill:none;stroke:#000000;stroke-width:7.5;stroke-linecap:butt;stroke-linejoin:miter;stroke-miterlimit:10;stroke-dasharray:none;stroke-opacity:1"
         d="m 2109.6,1608 h 2.4" /><path
         id="path116"
         style="fill:none;stroke:#000000;stroke-width:7.5;stroke-linecap:butt;stroke-linejoin:miter;stroke-miterlimit:10;stroke-dasharray:none;stroke-opacity:1"
         d="m 2109.6,1603.2 h 4.8" /><path
         id="path118"
         style="fill:none;stroke:#000000;stroke-width:7.5;stroke-linecap:butt;stroke-linejoin:miter;stroke-miterlimit:10;stroke-dasharray:none;stroke-opacity:1"
         d="m 2109.6,1612.8 2.4,7.2" /><path
         id="path120"
         style="fill:none;stroke:#000000;stroke-width:7.5;stroke-linecap:butt;stroke-linejoin:miter;stroke-miterlimit:10;stroke-dasharray:none;stroke-opacity:1"
         d="m 1963.2,1584 h 9.6" /><path
         id="path122"
         style="fill:none;stroke:#000000;stroke-width:7.5;stroke-linecap:butt;stroke-linejoin:miter;stroke-miterlimit:10;stroke-dasharray:none;stroke-opacity:1"
         d="m 1975.2,1576.8 -12,-2.4" /><path
         id="path124"
         style="fill:none;stroke:#000000;stroke-width:7.5;stroke-linecap:butt;stroke-linejoin:miter;stroke-miterlimit:10;stroke-dasharray:none;stroke-opacity:1"
         d="m 1965.6,1581.6 v -4.8" /><path
         id="path126"
         style="fill:none;stroke:#000000;stroke-width:7.5;stroke-linecap:butt;stroke-linejoin:miter;stroke-miterlimit:10;stroke-dasharray:none;stroke-opacity:1"
         d="m 1970.4,1576.8 2.4,4.8" /><path
         id="path128"
         style="fill:none;stroke:#000000;stroke-width:7.5;stroke-linecap:butt;stroke-linejoin:miter;stroke-miterlimit:10;stroke-dasharray:none;stroke-opacity:1"
         d="m 1968,1584 v -19.2" /><path
         id="path130"
         style="fill:none;stroke:#000000;stroke-width:7.5;stroke-linecap:butt;stroke-linejoin:miter;stroke-miterlimit:10;stroke-dasharray:none;stroke-opacity:1"
         d="m 2001.6,1579.2 2.4,4.8" /><path
         id="path132"
         style="fill:none;stroke:#000000;stroke-width:7.5;stroke-linecap:butt;stroke-linejoin:miter;stroke-miterlimit:10;stroke-dasharray:none;stroke-opacity:1"
         d="m 2006.4,1579.2 h -7.2" /><path
         id="path134"
         style="fill:none;stroke:#000000;stroke-width:7.5;stroke-linecap:butt;stroke-linejoin:miter;stroke-miterlimit:10;stroke-dasharray:none;stroke-opacity:1"
         d="m 2004,1576.8 h -2.4" /><path
         id="path136"
         style="fill:none;stroke:#000000;stroke-width:7.5;stroke-linecap:butt;stroke-linejoin:miter;stroke-miterlimit:10;stroke-dasharray:none;stroke-opacity:1"
         d="m 2001.6,1572 h 2.4" /><path
         id="path138"
         style="fill:none;stroke:#000000;stroke-width:7.5;stroke-linecap:butt;stroke-linejoin:miter;stroke-miterlimit:10;stroke-dasharray:none;stroke-opacity:1"
         d="m 2004,1579.2 v -9.6" /><path
         id="path140"
         style="fill:none;stroke:#000000;stroke-width:7.5;stroke-linecap:butt;stroke-linejoin:miter;stroke-miterlimit:10;stroke-dasharray:none;stroke-opacity:1"
         d="m 2001.6,1579.2 v -9.6" /><path
         id="path142"
         style="fill:none;stroke:#000000;stroke-width:7.5;stroke-linecap:butt;stroke-linejoin:miter;stroke-miterlimit:10;stroke-dasharray:none;stroke-opacity:1"
         d="m 2006.4,1567.2 v 12" /><path
         id="path144"
         style="fill:none;stroke:#000000;stroke-width:7.5;stroke-linecap:butt;stroke-linejoin:miter;stroke-miterlimit:10;stroke-dasharray:none;stroke-opacity:1"
         d="m 1999.2,1567.2 7.2,2.4" /><path
         id="path146"
         style="fill:none;stroke:#000000;stroke-width:7.5;stroke-linecap:butt;stroke-linejoin:miter;stroke-miterlimit:10;stroke-dasharray:none;stroke-opacity:1"
         d="m 1999.2,1579.2 v -12" /><path
         id="path148"
         style="fill:none;stroke:#000000;stroke-width:7.5;stroke-linecap:butt;stroke-linejoin:miter;stroke-miterlimit:10;stroke-dasharray:none;stroke-opacity:1"
         d="m 2008.8,1584 h -12" /><path
         id="path150"
         style="fill:none;stroke:#000000;stroke-width:7.5;stroke-linecap:butt;stroke-linejoin:miter;stroke-miterlimit:10;stroke-dasharray:none;stroke-opacity:1"
         d="m 2042.4,1569.6 -2.4,-2.4 h -7.2 l -2.4,2.4 v 14.4 l 2.4,2.4 h 7.2 l 2.4,-2.4" /><path
         id="path152"
         style="fill:none;stroke:#000000;stroke-width:7.5;stroke-linecap:butt;stroke-linejoin:miter;stroke-miterlimit:10;stroke-dasharray:none;stroke-opacity:1"
         d="m 2078.4,1567.2 v 7.2 l 4.8,12 7.2,-12 v -7.2" /><path
         id="path154"
         style="fill:none;stroke:#000000;stroke-width:7.5;stroke-linecap:butt;stroke-linejoin:miter;stroke-miterlimit:10;stroke-dasharray:none;stroke-opacity:1"
         d="m 2078.4,1574.4 h 12" /><path
         id="path156"
         style="fill:none;stroke:#000000;stroke-width:7.5;stroke-linecap:butt;stroke-linejoin:miter;stroke-miterlimit:10;stroke-dasharray:none;stroke-opacity:1"
         d="m 2124,1567.2 h 12 l 2.4,2.4 v 14.4 l -2.4,2.4 h -12" /><path
         id="path158"
         style="fill:none;stroke:#000000;stroke-width:7.5;stroke-linecap:butt;stroke-linejoin:miter;stroke-miterlimit:10;stroke-dasharray:none;stroke-opacity:1"
         d="m 2128.8,1586.4 v -19.2" /><path
         id="path160"
         style="fill:none;stroke:#000000;stroke-width:7.5;stroke-linecap:butt;stroke-linejoin:miter;stroke-miterlimit:10;stroke-dasharray:none;stroke-opacity:1"
         d="m 2176.8,1584 v -4.8" /><path
         id="path162"
         style="fill:none;stroke:#000000;stroke-width:7.5;stroke-linecap:butt;stroke-linejoin:miter;stroke-miterlimit:10;stroke-dasharray:none;stroke-opacity:1"
         d="m 2174.4,1586.4 v -19.2" /><path
         id="path164"
         style="fill:none;stroke:#000000;stroke-width:7.5;stroke-linecap:butt;stroke-linejoin:miter;stroke-miterlimit:10;stroke-dasharray:none;stroke-opacity:1"
         d="m 2174.4,1584 h 2.4" /><path
         id="path166"
         style="fill:none;stroke:#000000;stroke-width:7.5;stroke-linecap:butt;stroke-linejoin:miter;stroke-miterlimit:10;stroke-dasharray:none;stroke-opacity:1"
         d="m 2176.8,1579.2 v -7.2 l -2.4,2.4" /><path
         id="path168"
         style="fill:none;stroke:#000000;stroke-width:7.5;stroke-linecap:butt;stroke-linejoin:miter;stroke-miterlimit:10;stroke-dasharray:none;stroke-opacity:1"
         d="m 2179.2,1584 h 4.8 l -2.4,-4.8 -2.4,-2.4 4.8,-9.6 v 0" /><path
         id="path170"
         style="fill:none;stroke:#000000;stroke-width:7.5;stroke-linecap:butt;stroke-linejoin:miter;stroke-miterlimit:10;stroke-dasharray:none;stroke-opacity:1"
         d="m 2184,1576.8 -2.4,-2.4" /><path
         id="path172"
         style="fill:none;stroke:#000000;stroke-width:7.5;stroke-linecap:butt;stroke-linejoin:miter;stroke-miterlimit:10;stroke-dasharray:none;stroke-opacity:1"
         d="m 2179.2,1581.6 h 2.4" /><path
         id="path174"
         style="fill:none;stroke:#000000;stroke-width:7.5;stroke-linecap:butt;stroke-linejoin:miter;stroke-miterlimit:10;stroke-dasharray:none;stroke-opacity:1"
         d="m 2179.2,1584 v -16.8 2.4" /><path
         id="path176"
         style="fill:none;stroke:#000000;stroke-width:7.5;stroke-linecap:butt;stroke-linejoin:miter;stroke-miterlimit:10;stroke-dasharray:none;stroke-opacity:1"
         d="m 2212.8,1586.4 2.4,-4.8" /><path
         id="path178"
         style="fill:none;stroke:#000000;stroke-width:7.5;stroke-linecap:butt;stroke-linejoin:miter;stroke-miterlimit:10;stroke-dasharray:none;stroke-opacity:1"
         d="m 2220,1581.6 -2.4,-2.4" /><path
         id="path180"
         style="fill:none;stroke:#000000;stroke-width:7.5;stroke-linecap:butt;stroke-linejoin:miter;stroke-miterlimit:10;stroke-dasharray:none;stroke-opacity:1"
         d="m 2210.4,1581.6 v -4.8" /><path
         id="path182"
         style="fill:none;stroke:#000000;stroke-width:7.5;stroke-linecap:butt;stroke-linejoin:miter;stroke-miterlimit:10;stroke-dasharray:none;stroke-opacity:1"
         d="m 2210.4,1581.6 h 9.6" /><path
         id="path184"
         style="fill:none;stroke:#000000;stroke-width:7.5;stroke-linecap:butt;stroke-linejoin:miter;stroke-miterlimit:10;stroke-dasharray:none;stroke-opacity:1"
         d="m 2210.4,1576.8 h 7.2" /><path
         id="path186"
         style="fill:none;stroke:#000000;stroke-width:7.5;stroke-linecap:butt;stroke-linejoin:miter;stroke-miterlimit:10;stroke-dasharray:none;stroke-opacity:1"
         d="m 2212.8,1574.4 -2.4,-2.4 -2.4,-7.2" /><path
         id="path188"
         style="fill:none;stroke:#000000;stroke-width:7.5;stroke-linecap:butt;stroke-linejoin:miter;stroke-miterlimit:10;stroke-dasharray:none;stroke-opacity:1"
         d="m 2210.4,1572 7.2,-7.2 h 2.4" /><path
         id="path190"
         style="fill:none;stroke:#000000;stroke-width:7.5;stroke-linecap:butt;stroke-linejoin:miter;stroke-miterlimit:10;stroke-dasharray:none;stroke-opacity:1"
         d="m 2215.2,1576.8 v -7.2" /><path
         id="path192"
         style="fill:none;stroke:#000000;stroke-width:7.5;stroke-linecap:butt;stroke-linejoin:miter;stroke-miterlimit:10;stroke-dasharray:none;stroke-opacity:1"
         d="m 2215.2,1572 2.4,2.4" /></g></g></svg>